<svg width="1000" height="1500" xmlns="http://www.w3.org/2000/svg"><g transform="translate(0,0)"><g><path class="link" d="M10,362.1375464684015C500,362.1375464684015 500,137.13754646840115 990,137.13754646840115" style="stroke-width: 274.275092936803px; fill: none; stroke: rgb(10, 0, 2); stroke-opacity: 0.4;"></path><path class="link" d="M10,1061.5055762081786C500,1061.5055762081786 500,399.4052044609662 990,399.4052044609662" style="stroke-width: 83.42007434944239px; fill: none; stroke: rgb(237, 166, 59); stroke-opacity: 0.4;"></path><path class="link" d="M10,817.6765799256506C500,817.6765799256506 500,315.98513011152386 990,315.98513011152386" style="stroke-width: 83.42007434944239px; fill: none; stroke: rgb(222, 16, 16); stroke-opacity: 0.4;"></path><path class="link" d="M10,532.1375464684015C500,532.1375464684015 500,514.3122676579923 990,514.3122676579923" style="stroke-width: 65.72490706319704px; fill: none; stroke: rgb(10, 0, 2); stroke-opacity: 0.4;"></path><path class="link" d="M10,593.4386617100372C500,593.4386617100372 500,629.8513011152413 990,629.8513011152413" style="stroke-width: 56.877323420074354px; fill: none; stroke: rgb(10, 0, 2); stroke-opacity: 0.4;"></path><path class="link" d="M10,922.5836431226767C500,922.5836431226767 500,739.0706319702599 990,739.0706319702599" style="stroke-width: 37.9182156133829px; fill: none; stroke: rgb(222, 16, 16); stroke-opacity: 0.4;"></path><path class="link" d="M10,1219.3866171003717C500,1219.3866171003717 500,456.2825278810406 990,456.2825278810406" style="stroke-width: 30.33457249070632px; fill: none; stroke: rgb(215, 219, 7); stroke-opacity: 0.4;"></path><path class="link" d="M10,871.3940520446098C500,871.3940520446098 500,559.1821561338287 990,559.1821561338287" style="stroke-width: 24.014869888475836px; fill: none; stroke: rgb(222, 16, 16); stroke-opacity: 0.4;"></path><path class="link" d="M10,893.5130111524164C500,893.5130111524164 500,668.4014869888473 990,668.4014869888473" style="stroke-width: 20.223048327137548px; fill: none; stroke: rgb(222, 16, 16); stroke-opacity: 0.4;"></path><path class="link" d="M10,662.9553903345725C500,662.9553903345725 500,844.3866171003714 990,844.3866171003714" style="stroke-width: 18.95910780669145px; fill: none; stroke: rgb(10, 0, 2); stroke-opacity: 0.4;"></path><path class="link" d="M10,643.996282527881C500,643.996282527881 500,791.4126394052041 990,791.4126394052041" style="stroke-width: 18.95910780669145px; fill: none; stroke: rgb(10, 0, 2); stroke-opacity: 0.4;"></path><path class="link" d="M10,690.7620817843866C500,690.7620817843866 500,931.3754646840146 990,931.3754646840146" style="stroke-width: 18.95910780669145px; fill: none; stroke: rgb(10, 0, 2); stroke-opacity: 0.4;"></path><path class="link" d="M10,1111.4312267657992C500,1111.4312267657992 500,579.4052044609662 990,579.4052044609662" style="stroke-width: 16.43122676579926px; fill: none; stroke: rgb(237, 166, 59); stroke-opacity: 0.4;"></path><path class="link" d="M10,948.4944237918216C500,948.4944237918216 500,807.8438661710034 990,807.8438661710034" style="stroke-width: 13.903345724907064px; fill: none; stroke: rgb(222, 16, 16); stroke-opacity: 0.4;"></path><path class="link" d="M10,628.1970260223048C500,628.1970260223048 500,713.7918215613379 990,713.7918215613379" style="stroke-width: 12.639405204460967px; fill: none; stroke: rgb(10, 0, 2); stroke-opacity: 0.4;"></path><path class="link" d="M10,1125.3345724907065C500,1125.3345724907065 500,684.2007434944235 990,684.2007434944235" style="stroke-width: 11.37546468401487px; fill: none; stroke: rgb(237, 166, 59); stroke-opacity: 0.4;"></path><path class="link" d="M10,713.5130111524163C500,713.5130111524163 500,990.5576208178435 990,990.5576208178435" style="stroke-width: 11.37546468401487px; fill: none; stroke: rgb(10, 0, 2); stroke-opacity: 0.4;"></path><path class="link" d="M10,966.189591078067C500,966.189591078067 500,897.3605947955386 990,897.3605947955386" style="stroke-width: 11.37546468401487px; fill: none; stroke: rgb(222, 16, 16); stroke-opacity: 0.4;"></path><path class="link" d="M10,1136.0780669144983C500,1136.0780669144983 500,763.0855018587356 990,763.0855018587356" style="stroke-width: 10.111524163568774px; fill: none; stroke: rgb(237, 166, 59); stroke-opacity: 0.4;"></path><path class="link" d="M10,1146.189591078067C500,1146.189591078067 500,819.8513011152412 990,819.8513011152412" style="stroke-width: 10.111524163568774px; fill: none; stroke: rgb(237, 166, 59); stroke-opacity: 0.4;"></path><path class="link" d="M10,676.8587360594796C500,676.8587360594796 500,887.24907063197 990,887.24907063197" style="stroke-width: 8.847583643122677px; fill: none; stroke: rgb(10, 0, 2); stroke-opacity: 0.4;"></path><path class="link" d="M10,1155.6691449814127C500,1155.6691449814127 500,863.3457249070628 990,863.3457249070628" style="stroke-width: 8.847583643122677px; fill: none; stroke: rgb(237, 166, 59); stroke-opacity: 0.4;"></path><path class="link" d="M10,1242.1375464684015C500,1242.1375464684015 500,693.6802973977692 990,693.6802973977692" style="stroke-width: 7.58364312267658px; fill: none; stroke: rgb(215, 219, 7); stroke-opacity: 0.4;"></path><path class="link" d="M10,704.0334572490707C500,704.0334572490707 500,962.2304832713752 990,962.2304832713752" style="stroke-width: 7.58364312267658px; fill: none; stroke: rgb(10, 0, 2); stroke-opacity: 0.4;"></path><path class="link" d="M10,976.3011152416358C500,976.3011152416358 500,969.1821561338287 990,969.1821561338287" style="stroke-width: 6.319702602230484px; fill: none; stroke: rgb(222, 16, 16); stroke-opacity: 0.4;"></path><path class="link" d="M10,982.6208178438662C500,982.6208178438662 500,1035.8364312267654 990,1035.8364312267654" style="stroke-width: 6.319702602230484px; fill: none; stroke: rgb(222, 16, 16); stroke-opacity: 0.4;"></path><path class="link" d="M10,733.7360594795539C500,733.7360594795539 500,1108.6988847583639 990,1108.6988847583639" style="stroke-width: 6.319702602230484px; fill: none; stroke: rgb(10, 0, 2); stroke-opacity: 0.4;"></path><path class="link" d="M10,996.5241635687734C500,996.5241635687734 500,1091.1152416356872 990,1091.1152416356872" style="stroke-width: 6.319702602230484px; fill: none; stroke: rgb(222, 16, 16); stroke-opacity: 0.4;"></path><path class="link" d="M10,721.7286245353159C500,721.7286245353159 500,1011.3011152416353 990,1011.3011152416353" style="stroke-width: 5.055762081784387px; fill: none; stroke: rgb(10, 0, 2); stroke-opacity: 0.4;"></path><path class="link" d="M10,957.9739776951674C500,957.9739776951674 500,856.3940520446093 990,856.3940520446093" style="stroke-width: 5.055762081784387px; fill: none; stroke: rgb(222, 16, 16); stroke-opacity: 0.4;"></path><path class="link" d="M10,988.3085501858736C500,988.3085501858736 500,1054.052044609665 990,1054.052044609665" style="stroke-width: 5.055762081784387px; fill: none; stroke: rgb(222, 16, 16); stroke-opacity: 0.4;"></path><path class="link" d="M10,1166.4126394052046C500,1166.4126394052046 500,944.6468401486986 990,944.6468401486986" style="stroke-width: 5.055762081784387px; fill: none; stroke: rgb(237, 166, 59); stroke-opacity: 0.4;"></path><path class="link" d="M10,1252.2490706319702C500,1252.2490706319702 500,870.2973977695164 990,870.2973977695164" style="stroke-width: 5.055762081784387px; fill: none; stroke: rgb(215, 219, 7); stroke-opacity: 0.4;"></path><path class="link" d="M10,1257.3048327137546C500,1257.3048327137546 500,909.3680297397766 990,909.3680297397766" style="stroke-width: 5.055762081784387px; fill: none; stroke: rgb(215, 219, 7); stroke-opacity: 0.4;"></path><path class="link" d="M10,1236.449814126394C500,1236.449814126394 500,589.5167286245351 990,589.5167286245351" style="stroke-width: 3.79182156133829px; fill: none; stroke: rgb(215, 219, 7); stroke-opacity: 0.4;"></path><path class="link" d="M10,1247.825278810409C500,1247.825278810409 500,770.0371747211892 990,770.0371747211892" style="stroke-width: 3.79182156133829px; fill: none; stroke: rgb(215, 219, 7); stroke-opacity: 0.4;"></path><path class="link" d="M10,1174.628252788104C500,1174.628252788104 500,1015.7249070631966 990,1015.7249070631966" style="stroke-width: 3.79182156133829px; fill: none; stroke: rgb(237, 166, 59); stroke-opacity: 0.4;"></path><path class="link" d="M10,1001.5799256505577C500,1001.5799256505577 500,1125.0185873605944 990,1125.0185873605944" style="stroke-width: 3.79182156133829px; fill: none; stroke: rgb(222, 16, 16); stroke-opacity: 0.4;"></path><path class="link" d="M10,1161.988847583643C500,1161.988847583643 500,904.9442379182153 990,904.9442379182153" style="stroke-width: 3.79182156133829px; fill: none; stroke: rgb(237, 166, 59); stroke-opacity: 0.4;"></path><path class="link" d="M10,725.5204460966543C500,725.5204460966543 500,1031.4126394052041 990,1031.4126394052041" style="stroke-width: 2.5278810408921935px; fill: none; stroke: rgb(10, 0, 2); stroke-opacity: 0.4;"></path><path class="link" d="M10,1263.6245353159852C500,1263.6245353159852 500,1018.8847583643119 990,1018.8847583643119" style="stroke-width: 2.5278810408921935px; fill: none; stroke: rgb(215, 219, 7); stroke-opacity: 0.4;"></path><path class="link" d="M10,729.3122676579926C500,729.3122676579926 500,1071.6356877323415 990,1071.6356877323415" style="stroke-width: 2.5278810408921935px; fill: none; stroke: rgb(10, 0, 2); stroke-opacity: 0.4;"></path><path class="link" d="M10,739.4237918215613C500,739.4237918215613 500,1138.1784386617098 990,1138.1784386617098" style="stroke-width: 2.5278810408921935px; fill: none; stroke: rgb(10, 0, 2); stroke-opacity: 0.4;"></path><path class="link" d="M10,741.9516728624535C500,741.9516728624535 500,1153.2342007434943 990,1153.2342007434943" style="stroke-width: 2.5278810408921935px; fill: none; stroke: rgb(10, 0, 2); stroke-opacity: 0.4;"></path><path class="link" d="M10,1171.468401486989C500,1171.468401486989 500,997.5092936802971 990,997.5092936802971" style="stroke-width: 2.5278810408921935px; fill: none; stroke: rgb(237, 166, 59); stroke-opacity: 0.4;"></path><path class="link" d="M10,992.100371747212C500,992.100371747212 500,1074.1635687732337 990,1074.1635687732337" style="stroke-width: 2.5278810408921935px; fill: none; stroke: rgb(222, 16, 16); stroke-opacity: 0.4;"></path><path class="link" d="M10,1179.0520446096655C500,1179.0520446096655 500,1057.8438661710034 990,1057.8438661710034" style="stroke-width: 2.5278810408921935px; fill: none; stroke: rgb(237, 166, 59); stroke-opacity: 0.4;"></path><path class="link" d="M10,1181.5799256505577C500,1181.5799256505577 500,1076.691449814126 990,1076.691449814126" style="stroke-width: 2.5278810408921935px; fill: none; stroke: rgb(237, 166, 59); stroke-opacity: 0.4;"></path><path class="link" d="M10,748.9033457249071C500,748.9033457249071 500,1240.2973977695167 990,1240.2973977695167" style="stroke-width: 1.2639405204460967px; fill: none; stroke: rgb(10, 0, 2); stroke-opacity: 0.4;"></path><path class="link" d="M10,1270.5762081784385C500,1270.5762081784385 500,1307.8810408921934 990,1307.8810408921934" style="stroke-width: 1.2639405204460967px; fill: none; stroke: rgb(215, 219, 7); stroke-opacity: 0.4;"></path><path class="link" d="M10,1007.8996282527881C500,1007.8996282527881 500,1341.6728624535317 990,1341.6728624535317" style="stroke-width: 1.2639405204460967px; fill: none; stroke: rgb(222, 16, 16); stroke-opacity: 0.4;"></path><path class="link" d="M10,746.3754646840149C500,746.3754646840149 500,1217.7695167286245 990,1217.7695167286245" style="stroke-width: 1.2639405204460967px; fill: none; stroke: rgb(10, 0, 2); stroke-opacity: 0.4;"></path><path class="link" d="M10,1268.0483271375463C500,1268.0483271375463 500,1170.1858736059478 990,1170.1858736059478" style="stroke-width: 1.2639405204460967px; fill: none; stroke: rgb(215, 219, 7); stroke-opacity: 0.4;"></path><path class="link" d="M10,1005.3717472118959C500,1005.3717472118959 500,1167.6579925650556 990,1167.6579925650556" style="stroke-width: 1.2639405204460967px; fill: none; stroke: rgb(222, 16, 16); stroke-opacity: 0.4;"></path><path class="link" d="M10,755.2230483271377C500,755.2230483271377 500,1330.4089219330856 990,1330.4089219330856" style="stroke-width: 1.2639405204460967px; fill: none; stroke: rgb(10, 0, 2); stroke-opacity: 0.4;"></path><path class="link" d="M10,1271.8401486988846C500,1271.8401486988846 500,1352.9368029739778 990,1352.9368029739778" style="stroke-width: 1.2639405204460967px; fill: none; stroke: rgb(215, 219, 7); stroke-opacity: 0.4;"></path><path class="link" d="M10,1274.3680297397768C500,1274.3680297397768 500,1409.2565055762084 990,1409.2565055762084" style="stroke-width: 1.2639405204460967px; fill: none; stroke: rgb(215, 219, 7); stroke-opacity: 0.4;"></path><path class="link" d="M10,757.7509293680299C500,757.7509293680299 500,1375.46468401487 990,1375.46468401487" style="stroke-width: 1.2639405204460967px; fill: none; stroke: rgb(10, 0, 2); stroke-opacity: 0.4;"></path><path class="link" d="M10,1265.5204460966543C500,1265.5204460966543 500,1059.7397769516724 990,1059.7397769516724" style="stroke-width: 1.2639405204460967px; fill: none; stroke: rgb(215, 219, 7); stroke-opacity: 0.4;"></path><path class="link" d="M10,1269.3122676579924C500,1269.3122676579924 500,1262.825278810409 990,1262.825278810409" style="stroke-width: 1.2639405204460967px; fill: none; stroke: rgb(215, 219, 7); stroke-opacity: 0.4;"></path><path class="link" d="M10,760.2788104089221C500,760.2788104089221 500,1420.5204460966545 990,1420.5204460966545" style="stroke-width: 1.2639405204460967px; fill: none; stroke: rgb(10, 0, 2); stroke-opacity: 0.4;"></path><path class="link" d="M10,737.5278810408921C500,737.5278810408921 500,1122.4907063197022 990,1122.4907063197022" style="stroke-width: 1.2639405204460967px; fill: none; stroke: rgb(10, 0, 2); stroke-opacity: 0.4;"></path><path class="link" d="M10,762.8066914498144C500,762.8066914498144 500,1465.576208178439 990,1465.576208178439" style="stroke-width: 1.2639405204460967px; fill: none; stroke: rgb(10, 0, 2); stroke-opacity: 0.4;"></path><path class="link" d="M10,759.014869888476C500,759.014869888476 500,1386.7286245353162 990,1386.7286245353162" style="stroke-width: 1.2639405204460967px; fill: none; stroke: rgb(10, 0, 2); stroke-opacity: 0.4;"></path><path class="link" d="M10,727.4163568773234C500,727.4163568773234 500,1050.8921933085496 990,1050.8921933085496" style="stroke-width: 1.2639405204460967px; fill: none; stroke: rgb(10, 0, 2); stroke-opacity: 0.4;"></path><path class="link" d="M10,752.6951672862455C500,752.6951672862455 500,1296.6171003717473 990,1296.6171003717473" style="stroke-width: 1.2639405204460967px; fill: none; stroke: rgb(10, 0, 2); stroke-opacity: 0.4;"></path><path class="link" d="M10,750.1672862453532C500,750.1672862453532 500,1251.5613382899628 990,1251.5613382899628" style="stroke-width: 1.2639405204460967px; fill: none; stroke: rgb(10, 0, 2); stroke-opacity: 0.4;"></path><path class="link" d="M10,756.4869888475838C500,756.4869888475838 500,1364.200743494424 990,1364.200743494424" style="stroke-width: 1.2639405204460967px; fill: none; stroke: rgb(10, 0, 2); stroke-opacity: 0.4;"></path><path class="link" d="M10,765.3345724907066C500,765.3345724907066 500,1488.1040892193312 990,1488.1040892193312" style="stroke-width: 1.2639405204460967px; fill: none; stroke: rgb(10, 0, 2); stroke-opacity: 0.4;"></path><path class="link" d="M10,751.4312267657994C500,751.4312267657994 500,1285.3531598513011 990,1285.3531598513011" style="stroke-width: 1.2639405204460967px; fill: none; stroke: rgb(10, 0, 2); stroke-opacity: 0.4;"></path><path class="link" d="M10,743.8475836431227C500,743.8475836431227 500,1193.9776951672861 990,1193.9776951672861" style="stroke-width: 1.2639405204460967px; fill: none; stroke: rgb(10, 0, 2); stroke-opacity: 0.4;"></path><path class="link" d="M10,747.639405204461C500,747.639405204461 500,1229.0334572490706 990,1229.0334572490706" style="stroke-width: 1.2639405204460967px; fill: none; stroke: rgb(10, 0, 2); stroke-opacity: 0.4;"></path><path class="link" d="M10,1004.1078066914498C500,1004.1078066914498 500,1140.074349442379 990,1140.074349442379" style="stroke-width: 1.2639405204460967px; fill: none; stroke: rgb(222, 16, 16); stroke-opacity: 0.4;"></path><path class="link" d="M10,1273.1040892193307C500,1273.1040892193307 500,1397.9925650557623 990,1397.9925650557623" style="stroke-width: 1.2639405204460967px; fill: none; stroke: rgb(215, 219, 7); stroke-opacity: 0.4;"></path><path class="link" d="M10,1260.4646840148698C500,1260.4646840148698 500,947.8066914498138 990,947.8066914498138" style="stroke-width: 1.2639405204460967px; fill: none; stroke: rgb(215, 219, 7); stroke-opacity: 0.4;"></path><path class="link" d="M10,1183.4758364312268C500,1183.4758364312268 500,1094.9070631970255 990,1094.9070631970255" style="stroke-width: 1.2639405204460967px; fill: none; stroke: rgb(237, 166, 59); stroke-opacity: 0.4;"></path><path class="link" d="M10,753.9591078066916C500,753.9591078066916 500,1319.1449814126395 990,1319.1449814126395" style="stroke-width: 1.2639405204460967px; fill: none; stroke: rgb(10, 0, 2); stroke-opacity: 0.4;"></path><path class="link" d="M10,1186.003717472119C500,1186.003717472119 500,1155.1301115241633 990,1155.1301115241633" style="stroke-width: 1.2639405204460967px; fill: none; stroke: rgb(237, 166, 59); stroke-opacity: 0.4;"></path><path class="link" d="M10,1192.3234200743493C500,1192.3234200743493 500,1454.3122676579928 990,1454.3122676579928" style="stroke-width: 1.2639405204460967px; fill: none; stroke: rgb(237, 166, 59); stroke-opacity: 0.4;"></path><path class="link" d="M10,1266.7843866171004C500,1266.7843866171004 500,1156.3940520446095 990,1156.3940520446095" style="stroke-width: 1.2639405204460967px; fill: none; stroke: rgb(215, 219, 7); stroke-opacity: 0.4;"></path><path class="link" d="M10,1006.635687732342C500,1006.635687732342 500,1181.449814126394 990,1181.449814126394" style="stroke-width: 1.2639405204460967px; fill: none; stroke: rgb(222, 16, 16); stroke-opacity: 0.4;"></path><path class="link" d="M10,1169.5724907063197C500,1169.5724907063197 500,972.9739776951669 990,972.9739776951669" style="stroke-width: 1.2639405204460967px; fill: none; stroke: rgb(237, 166, 59); stroke-opacity: 0.4;"></path><path class="link" d="M10,764.0706319702605C500,764.0706319702605 500,1476.840148698885 990,1476.840148698885" style="stroke-width: 1.2639405204460967px; fill: none; stroke: rgb(10, 0, 2); stroke-opacity: 0.4;"></path><path class="link" d="M10,1184.7397769516729C500,1184.7397769516729 500,1141.338289962825 990,1141.338289962825" style="stroke-width: 1.2639405204460967px; fill: none; stroke: rgb(237, 166, 59); stroke-opacity: 0.4;"></path><path class="link" d="M10,1009.1635687732343C500,1009.1635687732343 500,1431.7843866171006 990,1431.7843866171006" style="stroke-width: 1.2639405204460967px; fill: none; stroke: rgb(222, 16, 16); stroke-opacity: 0.4;"></path><path class="link" d="M10,1188.531598513011C500,1188.531598513011 500,1182.71375464684 990,1182.71375464684" style="stroke-width: 1.2639405204460967px; fill: none; stroke: rgb(237, 166, 59); stroke-opacity: 0.4;"></path><path class="link" d="M10,1189.795539033457C500,1189.795539033457 500,1195.2416356877322 990,1195.2416356877322" style="stroke-width: 1.2639405204460967px; fill: none; stroke: rgb(237, 166, 59); stroke-opacity: 0.4;"></path><path class="link" d="M10,1187.2676579925649C500,1187.2676579925649 500,1168.9219330855017 990,1168.9219330855017" style="stroke-width: 1.2639405204460967px; fill: none; stroke: rgb(237, 166, 59); stroke-opacity: 0.4;"></path><path class="link" d="M10,1261.728624535316C500,1261.728624535316 500,974.237918215613 990,974.237918215613" style="stroke-width: 1.2639405204460967px; fill: none; stroke: rgb(215, 219, 7); stroke-opacity: 0.4;"></path><path class="link" d="M10,761.5427509293683C500,761.5427509293683 500,1443.0483271375467 990,1443.0483271375467" style="stroke-width: 1.2639405204460967px; fill: none; stroke: rgb(10, 0, 2); stroke-opacity: 0.4;"></path><path class="link" d="M10,1177.1561338289962C500,1177.1561338289962 500,1039.6282527881037 990,1039.6282527881037" style="stroke-width: 1.2639405204460967px; fill: none; stroke: rgb(237, 166, 59); stroke-opacity: 0.4;"></path><path class="link" d="M10,972.5092936802974C500,972.5092936802974 500,941.4869888475833 990,941.4869888475833" style="stroke-width: 1.2639405204460967px; fill: none; stroke: rgb(222, 16, 16); stroke-opacity: 0.4;"></path><path class="link" d="M10,1191.0594795539032C500,1191.0594795539032 500,1274.089219330855 990,1274.089219330855" style="stroke-width: 1.2639405204460967px; fill: none; stroke: rgb(237, 166, 59); stroke-opacity: 0.4;"></path><path class="link" d="M10,1193.5873605947954C500,1193.5873605947954 500,1499.3680297397773 990,1499.3680297397773" style="stroke-width: 1.2639405204460967px; fill: none; stroke: rgb(237, 166, 59); stroke-opacity: 0.4;"></path><path class="link" d="M10,745.1115241635688C500,745.1115241635688 500,1206.5055762081784 990,1206.5055762081784" style="stroke-width: 1.2639405204460967px; fill: none; stroke: rgb(10, 0, 2); stroke-opacity: 0.4;"></path></g><g><g class="node" transform="translate(990,-3.410605131648481e-13)"><rect height="471.4498141263941" width="10" style="fill: rgb(102, 102, 102);"><title>
373</title></rect><text x="-6" y="235.72490706319704" dy=".35em" text-anchor="end" style="font-size: 11px; font-family: Arial, Helvetica; pointer-events: none;"></text></g><g class="node" transform="translate(990,834.9070631970256)"><rect height="37.9182156133829" width="10" style="fill: rgb(102, 102, 102);"><title>1
30</title></rect><text x="-6" y="18.95910780669145" dy=".35em" text-anchor="end" style="font-size: 11px; font-family: Arial, Helvetica; pointer-events: none;">1</text></g><g class="node" transform="translate(990,1070.3717472118954)"><rect height="7.58364312267658" width="10" style="fill: rgb(102, 102, 102);"><title>1,000
6</title></rect><text x="-6" y="3.79182156133829" dy=".35em" text-anchor="end" style="font-size: 11px; font-family: Arial, Helvetica; pointer-events: none;">1,000</text></g><g class="node" transform="translate(990,1397.3605947955393)"><rect height="1.2639405204460967" width="10" style="fill: rgb(102, 102, 102);"><title>1.5
1</title></rect><text x="-6" y="0.6319702602230484" dy=".35em" text-anchor="end" style="font-size: 11px; font-family: Arial, Helvetica; pointer-events: none;">1.5</text></g><g class="node" transform="translate(990,481.44981412639373)"><rect height="109.96282527881041" width="10" style="fill: rgb(102, 102, 102);"><title>10
87</title></rect><text x="-6" y="54.98141263940521" dy=".35em" text-anchor="end" style="font-size: 11px; font-family: Arial, Helvetica; pointer-events: none;">10</text></g><g class="node" transform="translate(990,707.4721189591074)"><rect height="64.46096654275094" width="10" style="fill: rgb(102, 102, 102);"><title>100
51</title></rect><text x="-6" y="32.23048327137547" dy=".35em" text-anchor="end" style="font-size: 11px; font-family: Arial, Helvetica; pointer-events: none;">100</text></g><g class="node" transform="translate(990,1442.4163568773238)"><rect height="1.2639405204460967" width="10" style="fill: rgb(102, 102, 102);"><title>11
1</title></rect><text x="-6" y="0.6319702602230484" dy=".35em" text-anchor="end" style="font-size: 11px; font-family: Arial, Helvetica; pointer-events: none;">11</text></g><g class="node" transform="translate(990,1464.944237918216)"><rect height="1.2639405204460967" width="10" style="fill: rgb(102, 102, 102);"><title>110
1</title></rect><text x="-6" y="0.6319702602230484" dy=".35em" text-anchor="end" style="font-size: 11px; font-family: Arial, Helvetica; pointer-events: none;">110</text></g><g class="node" transform="translate(990,1205.8736059479554)"><rect height="1.2639405204460967" width="10" style="fill: rgb(102, 102, 102);"><title>12
1</title></rect><text x="-6" y="0.6319702602230484" dy=".35em" text-anchor="end" style="font-size: 11px; font-family: Arial, Helvetica; pointer-events: none;">12</text></g><g class="node" transform="translate(990,1228.4014869888476)"><rect height="1.2639405204460967" width="10" style="fill: rgb(102, 102, 102);"><title>12.62
1</title></rect><text x="-6" y="0.6319702602230484" dy=".35em" text-anchor="end" style="font-size: 11px; font-family: Arial, Helvetica; pointer-events: none;">12.62</text></g><g class="node" transform="translate(990,1239.6654275092937)"><rect height="1.2639405204460967" width="10" style="fill: rgb(102, 102, 102);"><title>13
1</title></rect><text x="-6" y="0.6319702602230484" dy=".35em" text-anchor="end" style="font-size: 11px; font-family: Arial, Helvetica; pointer-events: none;">13</text></g><g class="node" transform="translate(990,1250.9293680297399)"><rect height="1.2639405204460967" width="10" style="fill: rgb(102, 102, 102);"><title>14
1</title></rect><text x="-6" y="0.6319702602230484" dy=".35em" text-anchor="end" style="font-size: 11px; font-family: Arial, Helvetica; pointer-events: none;">14</text></g><g class="node" transform="translate(990,1273.457249070632)"><rect height="1.2639405204460967" width="10" style="fill: rgb(102, 102, 102);"><title>140
1</title></rect><text x="-6" y="0.6319702602230484" dy=".35em" text-anchor="end" style="font-size: 11px; font-family: Arial, Helvetica; pointer-events: none;">140</text></g><g class="node" transform="translate(990,1008.7732342007431)"><rect height="11.37546468401487" width="10" style="fill: rgb(102, 102, 102);"><title>15
9</title></rect><text x="-6" y="5.687732342007435" dy=".35em" text-anchor="end" style="font-size: 11px; font-family: Arial, Helvetica; pointer-events: none;">15</text></g><g class="node" transform="translate(990,1352.3048327137549)"><rect height="1.2639405204460967" width="10" style="fill: rgb(102, 102, 102);"><title>150
1</title></rect><text x="-6" y="0.6319702602230484" dy=".35em" text-anchor="end" style="font-size: 11px; font-family: Arial, Helvetica; pointer-events: none;">150</text></g><g class="node" transform="translate(990,1363.568773234201)"><rect height="1.2639405204460967" width="10" style="fill: rgb(102, 102, 102);"><title>155
1</title></rect><text x="-6" y="0.6319702602230484" dy=".35em" text-anchor="end" style="font-size: 11px; font-family: Arial, Helvetica; pointer-events: none;">155</text></g><g class="node" transform="translate(990,1374.832713754647)"><rect height="1.2639405204460967" width="10" style="fill: rgb(102, 102, 102);"><title>175
1</title></rect><text x="-6" y="0.6319702602230484" dy=".35em" text-anchor="end" style="font-size: 11px; font-family: Arial, Helvetica; pointer-events: none;">175</text></g><g class="node" transform="translate(990,1386.0966542750932)"><rect height="1.2639405204460967" width="10" style="fill: rgb(102, 102, 102);"><title>18
1</title></rect><text x="-6" y="0.6319702602230484" dy=".35em" text-anchor="end" style="font-size: 11px; font-family: Arial, Helvetica; pointer-events: none;">18</text></g><g class="node" transform="translate(990,921.8959107806688)"><rect height="26.542750929368033" width="10" style="fill: rgb(102, 102, 102);"><title>2
21</title></rect><text x="-6" y="13.271375464684017" dy=".35em" text-anchor="end" style="font-size: 11px; font-family: Arial, Helvetica; pointer-events: none;">2</text></g><g class="node" transform="translate(990,1419.8884758364316)"><rect height="1.2639405204460967" width="10" style="fill: rgb(102, 102, 102);"><title>2,000
1</title></rect><text x="-6" y="0.6319702602230484" dy=".35em" text-anchor="end" style="font-size: 11px; font-family: Arial, Helvetica; pointer-events: none;">2,000</text></g><g class="node" transform="translate(990,1105.5390334572487)"><rect height="6.319702602230484" width="10" style="fill: rgb(102, 102, 102);"><title>2.5
5</title></rect><text x="-6" y="3.159851301115242" dy=".35em" text-anchor="end" style="font-size: 11px; font-family: Arial, Helvetica; pointer-events: none;">2.5</text></g><g class="node" transform="translate(990,958.4386617100369)"><rect height="16.43122676579926" width="10" style="fill: rgb(102, 102, 102);"><title>20
13</title></rect><text x="-6" y="8.21561338289963" dy=".35em" text-anchor="end" style="font-size: 11px; font-family: Arial, Helvetica; pointer-events: none;">20</text></g><g class="node" transform="translate(990,1050.2602230483267)"><rect height="10.111524163568774" width="10" style="fill: rgb(102, 102, 102);"><title>200
8</title></rect><text x="-6" y="5.055762081784387" dy=".35em" text-anchor="end" style="font-size: 11px; font-family: Arial, Helvetica; pointer-events: none;">200</text></g><g class="node" transform="translate(990,1217.1375464684015)"><rect height="1.2639405204460967" width="10" style="fill: rgb(102, 102, 102);"><title>21
1</title></rect><text x="-6" y="0.6319702602230484" dy=".35em" text-anchor="end" style="font-size: 11px; font-family: Arial, Helvetica; pointer-events: none;">21</text></g><g class="node" transform="translate(990,1498.7360594795543)"><rect height="1.2639405204460967" width="10" style="fill: rgb(102, 102, 102);"><title>225
1</title></rect><text x="-6" y="0.6319702602230484" dy=".35em" text-anchor="end" style="font-size: 11px; font-family: Arial, Helvetica; pointer-events: none;">225</text></g><g class="node" transform="translate(990,781.9330855018584)"><rect height="42.97397769516729" width="10" style="fill: rgb(102, 102, 102);"><title>25
34</title></rect><text x="-6" y="21.486988847583646" dy=".35em" text-anchor="end" style="font-size: 11px; font-family: Arial, Helvetica; pointer-events: none;">25</text></g><g class="node" transform="translate(990,1087.955390334572)"><rect height="7.58364312267658" width="10" style="fill: rgb(102, 102, 102);"><title>250
6</title></rect><text x="-6" y="3.79182156133829" dy=".35em" text-anchor="end" style="font-size: 11px; font-family: Arial, Helvetica; pointer-events: none;">250</text></g><g class="node" transform="translate(990,1262.193308550186)"><rect height="1.2639405204460967" width="10" style="fill: rgb(102, 102, 102);"><title>26.6
1</title></rect><text x="-6" y="0.6319702602230484" dy=".35em" text-anchor="end" style="font-size: 11px; font-family: Arial, Helvetica; pointer-events: none;">26.6</text></g><g class="node" transform="translate(990,984.8698884758361)"><rect height="13.903345724907064" width="10" style="fill: rgb(102, 102, 102);"><title>3
11</title></rect><text x="-6" y="6.951672862453532" dy=".35em" text-anchor="end" style="font-size: 11px; font-family: Arial, Helvetica; pointer-events: none;">3</text></g><g class="node" transform="translate(990,1136.9144981412637)"><rect height="5.055762081784387" width="10" style="fill: rgb(102, 102, 102);"><title>30
4</title></rect><text x="-6" y="2.5278810408921935" dy=".35em" text-anchor="end" style="font-size: 11px; font-family: Arial, Helvetica; pointer-events: none;">30</text></g><g class="node" transform="translate(990,1295.9851301115243)"><rect height="1.2639405204460967" width="10" style="fill: rgb(102, 102, 102);"><title>33.1
1</title></rect><text x="-6" y="0.6319702602230484" dy=".35em" text-anchor="end" style="font-size: 11px; font-family: Arial, Helvetica; pointer-events: none;">33.1</text></g><g class="node" transform="translate(990,1307.2490706319704)"><rect height="1.2639405204460967" width="10" style="fill: rgb(102, 102, 102);"><title>38
1</title></rect><text x="-6" y="0.6319702602230484" dy=".35em" text-anchor="end" style="font-size: 11px; font-family: Arial, Helvetica; pointer-events: none;">38</text></g><g class="node" transform="translate(990,1318.5130111524165)"><rect height="1.2639405204460967" width="10" style="fill: rgb(102, 102, 102);"><title>4
1</title></rect><text x="-6" y="0.6319702602230484" dy=".35em" text-anchor="end" style="font-size: 11px; font-family: Arial, Helvetica; pointer-events: none;">4</text></g><g class="node" transform="translate(990,1329.7769516728627)"><rect height="1.2639405204460967" width="10" style="fill: rgb(102, 102, 102);"><title>41
1</title></rect><text x="-6" y="0.6319702602230484" dy=".35em" text-anchor="end" style="font-size: 11px; font-family: Arial, Helvetica; pointer-events: none;">41</text></g><g class="node" transform="translate(990,1341.0408921933088)"><rect height="1.2639405204460967" width="10" style="fill: rgb(102, 102, 102);"><title>410
1</title></rect><text x="-6" y="0.6319702602230484" dy=".35em" text-anchor="end" style="font-size: 11px; font-family: Arial, Helvetica; pointer-events: none;">410</text></g><g class="node" transform="translate(990,601.4126394052041)"><rect height="96.05947955390334" width="10" style="fill: rgb(102, 102, 102);"><title>5
76</title></rect><text x="-6" y="48.02973977695167" dy=".35em" text-anchor="end" style="font-size: 11px; font-family: Arial, Helvetica; pointer-events: none;">5</text></g><g class="node" transform="translate(990,1121.8587360594793)"><rect height="5.055762081784387" width="10" style="fill: rgb(102, 102, 102);"><title>5,000
4</title></rect><text x="-6" y="2.5278810408921935" dy=".35em" text-anchor="end" style="font-size: 11px; font-family: Arial, Helvetica; pointer-events: none;">5,000</text></g><g class="node" transform="translate(990,882.8252788104086)"><rect height="29.070631970260223" width="10" style="fill: rgb(102, 102, 102);"><title>50
23</title></rect><text x="-6" y="14.535315985130111" dy=".35em" text-anchor="end" style="font-size: 11px; font-family: Arial, Helvetica; pointer-events: none;">50</text></g><g class="node" transform="translate(990,1030.148698884758)"><rect height="10.111524163568774" width="10" style="fill: rgb(102, 102, 102);"><title>500
8</title></rect><text x="-6" y="5.055762081784387" dy=".35em" text-anchor="end" style="font-size: 11px; font-family: Arial, Helvetica; pointer-events: none;">500</text></g><g class="node" transform="translate(990,1180.817843866171)"><rect height="2.5278810408921935" width="10" style="fill: rgb(102, 102, 102);"><title>55
2</title></rect><text x="-6" y="1.2639405204460967" dy=".35em" text-anchor="end" style="font-size: 11px; font-family: Arial, Helvetica; pointer-events: none;">55</text></g><g class="node" transform="translate(990,1408.6245353159854)"><rect height="1.2639405204460967" width="10" style="fill: rgb(102, 102, 102);"><title>58
1</title></rect><text x="-6" y="0.6319702602230484" dy=".35em" text-anchor="end" style="font-size: 11px; font-family: Arial, Helvetica; pointer-events: none;">58</text></g><g class="node" transform="translate(990,1193.3457249070632)"><rect height="2.5278810408921935" width="10" style="fill: rgb(102, 102, 102);"><title>60
2</title></rect><text x="-6" y="1.2639405204460967" dy=".35em" text-anchor="end" style="font-size: 11px; font-family: Arial, Helvetica; pointer-events: none;">60</text></g><g class="node" transform="translate(990,1431.1524163568777)"><rect height="1.2639405204460967" width="10" style="fill: rgb(102, 102, 102);"><title>65
1</title></rect><text x="-6" y="0.6319702602230484" dy=".35em" text-anchor="end" style="font-size: 11px; font-family: Arial, Helvetica; pointer-events: none;">65</text></g><g class="node" transform="translate(990,1151.9702602230482)"><rect height="5.055762081784387" width="10" style="fill: rgb(102, 102, 102);"><title>7
4</title></rect><text x="-6" y="2.5278810408921935" dy=".35em" text-anchor="end" style="font-size: 11px; font-family: Arial, Helvetica; pointer-events: none;">7</text></g><g class="node" transform="translate(990,1453.68029739777)"><rect height="1.2639405204460967" width="10" style="fill: rgb(102, 102, 102);"><title>7.5
1</title></rect><text x="-6" y="0.6319702602230484" dy=".35em" text-anchor="end" style="font-size: 11px; font-family: Arial, Helvetica; pointer-events: none;">7.5</text></g><g class="node" transform="translate(990,1167.0260223048326)"><rect height="3.79182156133829" width="10" style="fill: rgb(102, 102, 102);"><title>75
3</title></rect><text x="-6" y="1.895910780669145" dy=".35em" text-anchor="end" style="font-size: 11px; font-family: Arial, Helvetica; pointer-events: none;">75</text></g><g class="node" transform="translate(990,1476.2081784386621)"><rect height="1.2639405204460967" width="10" style="fill: rgb(102, 102, 102);"><title>8.41
1</title></rect><text x="-6" y="0.6319702602230484" dy=".35em" text-anchor="end" style="font-size: 11px; font-family: Arial, Helvetica; pointer-events: none;">8.41</text></g><g class="node" transform="translate(990,1487.4721189591082)"><rect height="1.2639405204460967" width="10" style="fill: rgb(102, 102, 102);"><title>80
1</title></rect><text x="-6" y="0.6319702602230484" dy=".35em" text-anchor="end" style="font-size: 11px; font-family: Arial, Helvetica; pointer-events: none;">80</text></g><g class="node" transform="translate(990,1284.7211895910782)"><rect height="1.2639405204460967" width="10" style="fill: rgb(102, 102, 102);"><title>85.76
1</title></rect><text x="-6" y="0.6319702602230484" dy=".35em" text-anchor="end" style="font-size: 11px; font-family: Arial, Helvetica; pointer-events: none;">85.76</text></g><g class="node" transform="translate(0,1204.2193308550186)"><rect height="70.78066914498142" width="10"><title>
56</title></rect><text x="16" y="35.39033457249071" dy=".35em" text-anchor="start" style="font-size: 11px; font-family: Arial, Helvetica; pointer-events: none;"></text></g><g class="node" transform="translate(0,775.9665427509294)"><rect height="233.8289962825279" width="10"><title>1946
185</title></rect><text x="16" y="116.91449814126395" dy=".35em" text-anchor="start" style="font-size: 11px; font-family: Arial, Helvetica; pointer-events: none;">1946</text></g><g class="node" transform="translate(0,225)"><rect height="540.9665427509294" width="10"><title>1947
428</title></rect><text x="16" y="270.4832713754647" dy=".35em" text-anchor="start" style="font-size: 11px; font-family: Arial, Helvetica; pointer-events: none;">1947</text></g><g class="node" transform="translate(0,1019.7955390334573)"><rect height="174.42379182156134" width="10"><title>1948
138</title></rect><text x="16" y="87.21189591078067" dy=".35em" text-anchor="start" style="font-size: 11px; font-family: Arial, Helvetica; pointer-events: none;">1948</text></g></g></g></svg>
